<svg width="151" height="36" viewBox="0 0 151 36" fill="none" xmlns="http://www.w3.org/2000/svg">
<path d="M145.384 6.75732C145.384 2.43193 142.033 5.39872e-05 134.505 5.39872e-05H101.418V27.1036H132.909C143.681 27.1036 147.288 23.613 147.288 18.297C147.288 16.287 145.745 13.0225 141.004 12.1104V12.0365C143.785 11.2403 145.384 9.14922 145.384 6.75732ZM130.23 8.31679C130.23 9.37692 129.558 10.1006 126.622 10.1006H115.645V6.60847H126.622C129.558 6.60847 130.23 7.32602 130.23 8.31679ZM131.828 18.3717C131.828 19.59 130.952 20.4959 128.064 20.4959H115.645V16.2476H128.064C130.952 16.2476 131.828 17.1975 131.828 18.3717ZM86.3893 27.1035H99.5869V0H79.1204L73.0902 15.7514H72.9902L66.9597 0H46.4982V27.1035H59.6909V7.74803H59.7943L67.5249 27.1035H78.5537L86.2852 7.74803H86.3893L86.3893 27.1035ZM44.5163 16.8163V7.29556e-05H29.9818V16.4012C29.9818 19.894 27.248 20.9911 22.5064 20.9911C17.7674 20.9911 15.0328 19.894 15.0328 16.4012V7.29556e-05H0.5V16.8163C0.5 25.4339 7.55903 28.0542 22.5064 28.0542C37.4539 28.0542 44.5163 25.434 44.5163 16.8163Z" fill="#003C6E"/>
<path d="M0.547579 30.7488H146.216V36H0.547579V30.7488Z" fill="#42A5F5"/>
<path d="M148.501 27.099C148.548 27.0917 148.595 27.082 148.64 27.0699C148.685 27.0578 148.729 27.0432 148.77 27.0258C148.812 27.0085 148.852 26.9885 148.889 26.9655C148.926 26.9426 148.961 26.9167 148.993 26.8878C149.024 26.8588 149.053 26.8267 149.079 26.7912C149.104 26.7558 149.126 26.717 149.144 26.6747C149.162 26.6324 149.176 26.5866 149.185 26.537C149.195 26.4874 149.2 26.4341 149.2 26.3768C149.2 26.3193 149.195 26.2651 149.187 26.2141C149.178 26.1632 149.165 26.1156 149.147 26.0714C149.129 26.0272 149.106 25.9864 149.079 25.9491C149.052 25.9118 149.02 25.878 148.983 25.8479C148.946 25.8177 148.905 25.7911 148.858 25.7682C148.811 25.7453 148.759 25.726 148.702 25.7106C148.645 25.6951 148.582 25.6834 148.515 25.6756C148.447 25.6678 148.374 25.6639 148.296 25.6639H147.237V28.2424H147.575V27.099H148.149L148.93 28.2424H149.332L148.501 27.099ZM148.333 26.8219C148.284 26.8259 148.233 26.828 148.182 26.8292C148.13 26.8303 148.077 26.8305 148.025 26.8305H147.575V25.9339H148.205C148.246 25.9339 148.288 25.9352 148.328 25.9383C148.369 25.9413 148.409 25.946 148.447 25.9528C148.485 25.9596 148.522 25.9684 148.557 25.9797C148.592 25.9909 148.625 26.0046 148.656 26.0211C148.686 26.0376 148.714 26.0569 148.739 26.0793C148.763 26.1018 148.785 26.1274 148.802 26.1566C148.82 26.1857 148.834 26.2184 148.843 26.255C148.853 26.2916 148.858 26.3321 148.858 26.3768C148.858 26.4322 148.851 26.4808 148.839 26.5235C148.827 26.5661 148.809 26.6029 148.787 26.6345C148.764 26.6662 148.737 26.6927 148.705 26.715C148.674 26.7372 148.638 26.7552 148.599 26.7697C148.56 26.7842 148.518 26.7953 148.473 26.8037C148.429 26.8121 148.382 26.8179 148.333 26.8219Z" fill="#42A5F5"/>
<path d="M150.316 26.0761C150.286 26.009 150.253 25.9436 150.217 25.8802C150.181 25.8168 150.142 25.7553 150.099 25.6959C150.057 25.6365 150.011 25.5793 149.963 25.5243C149.915 25.4693 149.864 25.4166 149.81 25.3664C149.756 25.3161 149.7 25.2683 149.641 25.2231C149.582 25.178 149.521 25.1354 149.458 25.0957C149.394 25.0559 149.328 25.019 149.26 24.985C149.192 24.951 149.122 24.92 149.05 24.8921C148.978 24.8643 148.904 24.8395 148.828 24.8181C148.753 24.7967 148.675 24.7786 148.596 24.764C148.517 24.7493 148.436 24.7382 148.354 24.7307C148.272 24.7232 148.189 24.7194 148.104 24.7194C148.02 24.7194 147.936 24.7232 147.855 24.7307C147.773 24.7382 147.692 24.7493 147.613 24.764C147.535 24.7786 147.457 24.7967 147.382 24.8181C147.306 24.8395 147.232 24.8643 147.16 24.8921C147.088 24.92 147.018 24.951 146.95 24.985C146.882 25.019 146.816 25.0559 146.753 25.0957C146.689 25.1354 146.628 25.178 146.569 25.2231C146.51 25.2683 146.454 25.3161 146.4 25.3664C146.346 25.4166 146.295 25.4693 146.246 25.5243C146.198 25.5793 146.153 25.6365 146.11 25.6959C146.068 25.7553 146.028 25.8168 145.992 25.8802C145.955 25.9436 145.922 26.009 145.893 26.0761C145.863 26.1433 145.836 26.2122 145.813 26.2826C145.791 26.3531 145.771 26.4252 145.756 26.4987C145.74 26.5722 145.728 26.6472 145.72 26.7234C145.712 26.7995 145.708 26.877 145.708 26.9555C145.708 27.0337 145.712 27.1109 145.72 27.1868C145.728 27.2627 145.74 27.3374 145.756 27.4107C145.771 27.484 145.791 27.5559 145.813 27.6263C145.836 27.6966 145.863 27.7653 145.893 27.8323C145.922 27.8993 145.955 27.9646 145.992 28.0279C146.028 28.0912 146.068 28.1526 146.11 28.2119C146.153 28.2712 146.198 28.3284 146.246 28.3834C146.295 28.4383 146.346 28.491 146.4 28.5412C146.454 28.5914 146.51 28.6392 146.569 28.6843C146.628 28.7295 146.689 28.772 146.753 28.8118C146.816 28.8515 146.882 28.8885 146.95 28.9225C147.018 28.9565 147.088 28.9875 147.16 29.0154C147.232 29.0433 147.306 29.068 147.382 29.0895C147.457 29.1109 147.535 29.129 147.613 29.1437C147.692 29.1583 147.773 29.1695 147.855 29.1769C147.936 29.1844 148.02 29.1883 148.104 29.1883C148.189 29.1883 148.272 29.1844 148.354 29.1769C148.436 29.1695 148.517 29.1583 148.596 29.1437C148.675 29.129 148.753 29.1109 148.828 29.0895C148.904 29.068 148.978 29.0433 149.05 29.0154C149.122 28.9875 149.192 28.9565 149.26 28.9225C149.328 28.8885 149.394 28.8515 149.458 28.8118C149.521 28.772 149.582 28.7295 149.641 28.6843C149.7 28.6392 149.756 28.5914 149.81 28.5412C149.864 28.491 149.915 28.4383 149.963 28.3834C150.011 28.3284 150.057 28.2712 150.099 28.2119C150.142 28.1526 150.181 28.0912 150.217 28.0279C150.253 27.9646 150.286 27.8993 150.316 27.8323C150.346 27.7653 150.372 27.6966 150.395 27.6263C150.418 27.5559 150.437 27.484 150.453 27.4107C150.468 27.3374 150.48 27.2627 150.488 27.1868C150.496 27.1109 150.5 27.0337 150.5 26.9555C150.5 26.877 150.496 26.7995 150.488 26.7234C150.48 26.6472 150.468 26.5722 150.453 26.4987C150.437 26.4252 150.418 26.3531 150.395 26.2826C150.372 26.2122 150.346 26.1433 150.316 26.0761ZM149.977 27.7078C149.952 27.7653 149.925 27.8213 149.894 27.8756C149.864 27.9299 149.831 27.9825 149.795 28.0334C149.759 28.0843 149.721 28.1333 149.68 28.1804C149.64 28.2275 149.597 28.2727 149.552 28.3158C149.506 28.3588 149.459 28.3998 149.409 28.4385C149.359 28.4772 149.308 28.5137 149.254 28.5478C149.2 28.5819 149.144 28.6135 149.087 28.6427C149.029 28.6718 148.97 28.6984 148.909 28.7223C148.848 28.7462 148.785 28.7674 148.721 28.7858C148.656 28.8042 148.591 28.8197 148.523 28.8323C148.456 28.8448 148.387 28.8544 148.317 28.8608C148.248 28.8672 148.176 28.8705 148.104 28.8705C148.032 28.8705 147.961 28.8672 147.891 28.8608C147.821 28.8544 147.752 28.8448 147.685 28.8323C147.618 28.8197 147.552 28.8042 147.488 28.7858C147.424 28.7674 147.361 28.7462 147.3 28.7223C147.239 28.6984 147.18 28.6718 147.122 28.6427C147.065 28.6135 147.009 28.5819 146.956 28.5478C146.902 28.5137 146.851 28.4772 146.801 28.4385C146.752 28.3998 146.704 28.3588 146.659 28.3158C146.614 28.2727 146.571 28.2275 146.531 28.1804C146.49 28.1333 146.452 28.0843 146.417 28.0334C146.381 27.9825 146.348 27.9299 146.318 27.8756C146.287 27.8213 146.26 27.7653 146.235 27.7078C146.21 27.6504 146.188 27.5914 146.169 27.5311C146.15 27.4707 146.134 27.409 146.121 27.3461C146.108 27.2833 146.098 27.2192 146.092 27.154C146.085 27.0888 146.082 27.0226 146.082 26.9555C146.082 26.8887 146.085 26.8228 146.092 26.7579C146.098 26.6931 146.108 26.6292 146.121 26.5664C146.134 26.5037 146.15 26.4421 146.169 26.3818C146.188 26.3215 146.21 26.2625 146.235 26.205C146.26 26.1475 146.287 26.0915 146.318 26.037C146.348 25.9826 146.381 25.9298 146.417 25.8788C146.452 25.8278 146.49 25.7785 146.531 25.7312C146.571 25.6839 146.614 25.6385 146.659 25.5952C146.704 25.5519 146.752 25.5106 146.801 25.4717C146.851 25.4327 146.902 25.3959 146.956 25.3616C147.009 25.3273 147.065 25.2953 147.122 25.2659C147.18 25.2365 147.239 25.2097 147.3 25.1855C147.361 25.1614 147.424 25.14 147.488 25.1214C147.552 25.1028 147.618 25.0871 147.685 25.0744C147.752 25.0617 147.821 25.0521 147.891 25.0456C147.961 25.0391 148.032 25.0358 148.104 25.0358C148.176 25.0358 148.248 25.0391 148.317 25.0456C148.387 25.0521 148.456 25.0617 148.523 25.0744C148.591 25.0871 148.656 25.1028 148.721 25.1214C148.785 25.14 148.848 25.1614 148.909 25.1855C148.97 25.2097 149.029 25.2365 149.087 25.2659C149.144 25.2953 149.2 25.3273 149.254 25.3616C149.308 25.3959 149.359 25.4327 149.409 25.4717C149.459 25.5106 149.506 25.5519 149.552 25.5952C149.597 25.6385 149.64 25.6839 149.68 25.7312C149.721 25.7785 149.759 25.8278 149.795 25.8788C149.831 25.9298 149.864 25.9826 149.894 26.037C149.925 26.0915 149.952 26.1475 149.977 26.205C150.002 26.2625 150.024 26.3215 150.043 26.3818C150.063 26.4421 150.079 26.5037 150.092 26.5664C150.105 26.6292 150.115 26.6931 150.121 26.7579C150.128 26.8228 150.131 26.8887 150.131 26.9555C150.131 27.0226 150.128 27.0888 150.121 27.154C150.115 27.2192 150.105 27.2833 150.092 27.3461C150.079 27.409 150.063 27.4707 150.043 27.5311C150.024 27.5914 150.002 27.6504 149.977 27.7078Z" fill="#42A5F5"/>
</svg>
